<svg display="none"
xmlns="http://www.w3.org/2000/svg"
>
<symbol id="marker" width="16" height="20" viewBox="0 0 16 20"  >
<path fill-rule="evenodd" clip-rule="evenodd" d="M8.95926 19.0461C12.6152 15.4208 16 12.0643 16 8C16 3.58172 12.4183 0 8 0C3.58172 0 0 3.58172 0 8C0 12.0643 3.38479 15.4208 7.04074 19.0461C7.35912 19.3618 7.67956 19.6796 8 20C8.32044 19.6796 8.64088 19.3618 8.95926 19.0461ZM8 12C10.2091 12 12 10.2091 12 8C12 5.79086 10.2091 4 8 4C5.79086 4 4 5.79086 4 8C4 10.2091 5.79086 12 8 12Z" />
</symbol>
<symbol id="marker-yellow" width="16" height="20" viewBox="0 0 16 20" fill="none">
<path fill-rule="evenodd" clip-rule="evenodd" d="M8.95926 19.0461C12.6152 15.4208 16 12.0643 16 8C16 3.58172 12.4183 0 8 0C3.58172 0 0 3.58172 0 8C0 12.0643 3.38479 15.4208 7.04074 19.0461C7.35912 19.3618 7.67956 19.6796 8 20C8.32044 19.6796 8.64088 19.3618 8.95926 19.0461ZM8 12C10.2091 12 12 10.2091 12 8C12 5.79086 10.2091 4 8 4C5.79086 4 4 5.79086 4 8C4 10.2091 5.79086 12 8 12Z" fill="#FDB806"/>
</symbol>
<symbol id="marker-green" width="16" height="20" viewBox="0 0 16 20" fill="none">
<path fill-rule="evenodd" clip-rule="evenodd" d="M8.95926 19.0461C12.6152 15.4208 16 12.0643 16 8C16 3.58172 12.4183 0 8 0C3.58172 0 0 3.58172 0 8C0 12.0643 3.38479 15.4208 7.04074 19.0461C7.35912 19.3618 7.67956 19.6796 8 20C8.32044 19.6796 8.64088 19.3618 8.95926 19.0461ZM8 12C10.2091 12 12 10.2091 12 8C12 5.79086 10.2091 4 8 4C5.79086 4 4 5.79086 4 8C4 10.2091 5.79086 12 8 12Z" fill="#1DA83B"/>
</symbol>
<symbol id="marker-black" width="16" height="20" viewBox="0 0 16 20" fill="none">
<path fill-rule="evenodd" clip-rule="evenodd" d="M8.95926 19.0461C12.6152 15.4208 16 12.0643 16 8C16 3.58172 12.4183 0 8 0C3.58172 0 0 3.58172 0 8C0 12.0643 3.38479 15.4208 7.04074 19.0461C7.35912 19.3618 7.67956 19.6796 8 20C8.32044 19.6796 8.64088 19.3618 8.95926 19.0461ZM8 12C10.2091 12 12 10.2091 12 8C12 5.79086 10.2091 4 8 4C5.79086 4 4 5.79086 4 8C4 10.2091 5.79086 12 8 12Z" fill="#32323E"/>
</symbol>
</svg>